<?xml version="1.0" encoding="utf-8" ?>
<svg xmlns="http://www.w3.org/2000/svg" xmlns:xlink="http://www.w3.org/1999/xlink" width="1024" height="1024">
	<path fill="#FEFEFE" d="M0 0L1024 0L1024 1024L0 1024L0 0Z"/>
	<defs>
		<linearGradient id="gradient_0" gradientUnits="userSpaceOnUse" x1="715.98767" y1="838.82196" x2="224.8461" y2="254.82599">
			<stop offset="0" stop-color="#094A4C"/>
			<stop offset="1" stop-color="#209092"/>
		</linearGradient>
	</defs>
	<path fill="url(#gradient_0)" d="M505.086 129.228C524.498 128.678 544.228 129.449 563.44 132.378C575.663 134.242 588.021 136.111 600.055 138.965C691.805 160.729 768.553 213.392 824.158 289.335Q826.904 293.143 829.555 297.018Q832.206 300.893 834.761 304.831Q837.317 308.77 839.775 312.77Q842.233 316.77 844.592 320.83Q846.951 324.889 849.209 329.005Q851.468 333.121 853.625 337.291Q855.782 341.461 857.836 345.683Q859.89 349.905 861.84 354.176Q863.789 358.447 865.634 362.764Q867.478 367.082 869.216 371.443Q870.954 375.805 872.584 380.207Q874.214 384.61 875.736 389.052Q877.258 393.493 878.67 397.971Q880.082 402.448 881.384 406.959Q882.686 411.47 883.877 416.011Q885.067 420.553 886.146 425.122Q887.225 429.691 888.192 434.286Q889.158 438.88 890.012 443.497Q890.865 448.114 891.605 452.75Q892.345 457.386 892.971 462.039Q893.597 466.692 894.108 471.359Q894.62 476.026 895.016 480.704Q895.413 485.383 895.695 490.069Q895.977 494.755 896.143 499.447Q896.31 504.139 896.362 508.834Q896.413 513.529 896.349 518.223Q896.286 522.918 896.107 527.609Q895.928 532.301 895.634 536.987Q895.34 541.672 894.931 546.349Q894.522 551.026 893.998 555.692Q893.475 560.358 892.837 565.009Q892.199 569.661 891.447 574.295Q890.697 578.826 889.838 583.338Q888.978 587.85 888.009 592.34Q887.04 596.83 885.962 601.295Q884.885 605.76 883.699 610.197Q882.513 614.635 881.22 619.042Q879.927 623.449 878.528 627.824Q877.128 632.199 875.623 636.538Q874.117 640.877 872.507 645.179Q870.897 649.481 869.182 653.742Q867.468 658.003 865.651 662.221Q863.834 666.44 861.915 670.613Q859.996 674.786 857.976 678.911Q855.956 683.036 853.837 687.111Q851.718 691.186 849.5 695.208Q847.283 699.231 844.968 703.198Q842.653 707.165 840.243 711.075Q837.833 714.985 835.329 718.836Q832.824 722.686 830.227 726.474Q827.63 730.263 824.942 733.987Q822.254 737.711 819.476 741.369Q816.698 745.027 813.832 748.616Q810.966 752.206 808.014 755.724Q805.062 759.243 802.025 762.689Q798.989 766.135 795.869 769.507Q792.75 772.878 789.549 776.173Q786.349 779.467 783.07 782.683Q779.79 785.899 776.434 789.035Q773.077 792.17 769.646 795.223Q766.214 798.276 762.71 801.245Q759.205 804.214 755.629 807.097Q752.054 809.979 748.409 812.775Q744.764 815.57 741.053 818.276C652.617 882.717 553.261 906.511 445.108 889.566C422.507 885.26 403.106 879.381 381.409 872.184C371.505 868.899 362.112 863.337 351.644 862.039C341.201 860.745 333.113 863.106 323.608 867.047Q311.599 871.885 299.315 875.974Q287.031 880.064 274.518 883.388Q262.005 886.713 249.311 889.261Q236.618 891.808 223.791 893.569C212.032 895.168 200.147 895.751 188.362 897.159C191.671 894.641 194.58 891.745 197.401 888.697Q198.527 887.488 199.623 886.252Q200.72 885.016 201.786 883.755Q202.852 882.493 203.888 881.206Q204.923 879.918 205.927 878.607Q206.932 877.295 207.904 875.959Q208.876 874.624 209.816 873.265Q210.756 871.907 211.663 870.526Q212.57 869.145 213.443 867.743Q214.316 866.34 215.156 864.918Q215.995 863.495 216.8 862.052Q217.604 860.609 218.374 859.147Q219.144 857.686 219.878 856.206Q220.613 854.726 221.311 853.229Q222.009 851.732 222.671 850.218Q223.334 848.705 223.959 847.176Q224.585 845.647 225.173 844.103Q225.761 842.559 226.312 841.002Q226.864 839.445 227.377 837.874Q227.89 836.304 228.366 834.722Q228.841 833.14 229.278 831.547Q229.715 829.954 230.114 828.35Q230.513 826.747 230.872 825.135Q231.232 823.523 231.553 821.902Q231.874 820.281 232.156 818.654Q232.438 817.026 232.68 815.392Q232.923 813.758 233.126 812.118Q233.328 810.479 233.492 808.835Q233.655 807.191 233.779 805.544Q233.903 803.896 233.987 802.246Q234.071 800.596 234.115 798.945Q234.159 797.294 234.164 795.642Q234.168 793.99 234.133 792.338C233.916 785.148 233.455 776.505 230.966 769.685C228.905 764.037 220.681 757.083 216.667 752.084Q206.249 739.253 196.543 725.875C151.709 663.415 130.866 595.202 128.219 518.679C127.871 508.624 128.504 498.555 129.131 488.523C132.989 426.75 151.369 370.031 182.916 316.88C195.561 295.574 210.275 274.96 227.199 256.819C236.368 246.99 245.702 237.258 255.702 228.266C274.721 211.165 295.305 196.489 317.243 183.423C376.361 148.213 436.435 131.603 505.086 129.228Z"/>
	<path fill="#0C414A" d="M746.841 765.94C745.45 770.503 728.465 780.72 727.57 782.537C727.412 782.857 727.393 783.553 727.342 783.939C727.248 784.651 727.311 784.377 726.833 785.058L727.303 785.564L726.887 785.687L727.738 784.737L727.378 785.453L730.972 783.58C721.978 790.966 711.854 797.039 702 803.194Q698.842 805.163 695.645 807.068Q692.448 808.973 689.213 810.812Q685.978 812.651 682.706 814.424Q679.434 816.197 676.126 817.904Q672.819 819.61 669.478 821.248Q666.136 822.887 662.762 824.457Q659.388 826.027 655.983 827.529Q652.578 829.03 649.143 830.462Q645.708 831.893 642.244 833.255Q638.781 834.617 635.29 835.907Q631.8 837.198 628.284 838.418Q624.768 839.638 621.228 840.786Q617.688 841.933 614.125 843.009Q610.562 844.085 606.978 845.088Q603.395 846.091 599.791 847.021Q596.188 847.95 592.566 848.807Q588.945 849.663 585.306 850.446Q581.668 851.228 578.014 851.937Q574.361 852.645 570.694 853.279Q567.027 853.913 563.348 854.472Q559.668 855.031 555.979 855.516Q552.289 856 548.59 856.409Q544.891 856.818 541.184 857.152Q537.478 857.486 533.765 857.744Q530.053 858.003 526.336 858.185Q522.619 858.368 518.899 858.475Q515.179 858.583 511.457 858.614Q507.736 858.646 504.015 858.601Q500.293 858.557 496.574 858.437Q492.854 858.318 489.138 858.122Q485.422 857.927 481.71 857.656Q477.998 857.385 474.293 857.038Q468.233 856.477 462.198 855.696Q456.163 854.915 450.16 853.915Q444.158 852.915 438.195 851.697Q432.233 850.479 426.319 849.045Q420.405 847.611 414.547 845.963Q408.689 844.314 402.895 842.454Q397.1 840.593 391.378 838.523Q385.655 836.453 380.012 834.176C369.238 829.858 356.168 821.706 345.605 818.95C340.286 817.563 335.147 818.055 329.987 819.849C318.909 823.7 300.744 836.579 289.791 842.966C277.658 850.041 264.507 855.833 251.526 861.149C249.335 862.046 245.194 864.295 242.848 863.512C242.416 862.467 242.498 862.286 242.709 861.157C258.004 855.261 273.401 847.905 287.686 839.922C298.989 833.605 322.593 817.115 333.735 814.522C337.735 813.592 342.117 814.035 346.045 815.127C353.45 817.186 360.456 821.236 367.387 824.496C376.483 828.774 385.881 832.764 395.42 835.948C439.716 850.733 483.044 856.332 529.626 854.482C598.898 848.769 665.42 826.178 722.114 785.539C730.668 779.407 738.759 772.673 746.841 765.94Z"/>
	<path fill="#19C89A" d="M242.709 861.157C243.576 858.158 250.706 849.407 252.787 846.153C266.01 825.482 275.719 801.87 276.963 777.085C277.284 770.678 277.408 765.186 273.753 759.632C269.354 752.947 262.376 747.112 256.8 741.332Q246.321 730.59 237.126 718.731C195.013 665.173 168.52 602.073 163.476 533.922Q163.127 529.57 162.888 525.211Q162.648 520.851 162.518 516.487Q162.388 512.123 162.367 507.757Q162.345 503.392 162.434 499.026Q162.522 494.661 162.719 490.3Q162.917 485.939 163.223 481.583Q163.53 477.228 163.945 472.882Q164.36 468.536 164.884 464.202Q165.408 459.867 166.041 455.547Q166.673 451.227 167.413 446.925Q168.153 442.622 169.001 438.339Q169.849 434.056 170.803 429.796Q171.758 425.536 172.819 421.301Q173.88 417.065 175.046 412.858Q176.213 408.651 177.484 404.474Q178.756 400.298 180.132 396.154Q181.507 392.011 182.986 387.903Q184.465 383.795 186.046 379.725Q187.628 375.656 189.31 371.627Q190.993 367.599 192.776 363.613Q194.559 359.628 196.441 355.689Q198.323 351.749 200.303 347.858Q202.283 343.967 204.36 340.127Q206.437 336.286 208.609 332.499Q210.781 328.712 213.048 324.98Q215.314 321.249 217.673 317.575Q220.032 313.901 222.482 310.288Q224.933 306.674 227.473 303.123Q230.013 299.572 232.641 296.086Q235.269 292.6 237.983 289.18Q240.697 285.76 243.497 282.41Q246.296 279.059 249.178 275.78C263.296 259.44 277.252 246.566 294.154 233.125C351.291 187.688 419.745 162.35 492.465 157.339Q498.653 156.894 504.853 156.684Q511.053 156.474 517.256 156.5Q523.46 156.526 529.658 156.788Q535.856 157.049 542.04 157.546Q548.224 158.043 554.384 158.774Q560.544 159.506 566.673 160.471Q572.801 161.435 578.888 162.633Q584.975 163.83 591.012 165.257C651.17 178.937 700.507 205.52 746.931 245.973Q749.548 248.275 752.118 250.629Q754.689 252.983 757.211 255.389Q759.734 257.794 762.208 260.249Q764.682 262.704 767.106 265.209Q769.53 267.714 771.903 270.266Q774.276 272.819 776.598 275.419Q778.919 278.019 781.188 280.665Q783.457 283.31 785.672 286.001Q787.888 288.692 790.048 291.427Q792.209 294.162 794.315 296.94Q796.42 299.717 798.47 302.537Q800.519 305.356 802.511 308.216Q804.504 311.076 806.438 313.975Q808.373 316.874 810.249 319.812Q812.125 322.75 813.941 325.724Q815.758 328.699 817.514 331.709Q819.271 334.72 820.967 337.765Q822.662 340.81 824.297 343.889Q825.931 346.967 827.503 350.078Q829.075 353.189 830.585 356.331Q832.094 359.472 833.54 362.644Q834.986 365.815 836.368 369.015Q837.75 372.215 839.068 375.442Q840.385 378.668 841.638 381.921Q842.89 385.174 844.077 388.451Q845.264 391.728 846.385 395.028Q847.506 398.329 848.561 401.651Q849.615 404.973 850.603 408.315Q851.591 411.658 852.511 415.02Q853.431 418.382 854.284 421.761Q855.136 425.141 855.921 428.537Q856.706 431.933 857.422 435.344C859.932 447.344 862.336 459.413 863.176 471.665L862.85 472.226C862.419 472.086 746.943 360.755 736.921 351.24C733.596 348.083 717.073 330.933 714.27 329.561C711.208 325.186 708.31 321.49 702.687 320.626C697.887 319.888 692.615 321.135 688.142 322.88C678.491 326.644 669.476 332.884 660.84 338.536C653.181 343.548 645.445 348.502 638.007 353.842C626.346 362.214 615.086 371.112 603.414 379.465C601.09 375.526 598.418 371.863 595.742 368.16C601.8 364.565 607.333 359.377 612.845 354.994C620.884 348.603 629.239 342.432 637.655 336.545C641.26 334.023 661.308 322.322 662.132 320.145C661.815 317.978 659.614 316.465 657.95 315.245C649.992 309.411 640.815 304.618 631.99 300.24C588.588 278.706 537.763 269.614 489.663 277.392Q486.674 277.851 483.697 278.385Q480.72 278.919 477.758 279.528Q474.795 280.136 471.849 280.819Q468.902 281.501 465.974 282.257Q463.046 283.013 460.137 283.843Q457.229 284.672 454.342 285.574Q451.456 286.476 448.592 287.45Q445.729 288.424 442.891 289.47Q440.053 290.516 437.243 291.632Q434.432 292.749 431.65 293.935Q428.868 295.122 426.117 296.378Q423.366 297.634 420.647 298.958Q417.928 300.283 415.243 301.675Q412.558 303.067 409.909 304.527Q407.26 305.986 404.649 307.511Q402.037 309.036 399.464 310.626Q396.892 312.216 394.36 313.87Q391.828 315.525 389.338 317.242Q386.849 318.959 384.403 320.738Q381.957 322.517 379.557 324.356Q377.156 326.196 374.803 328.096Q372.449 329.995 370.144 331.953Q367.839 333.91 365.584 335.925Q363.328 337.94 361.124 340.011Q358.92 342.082 356.768 344.208Q354.617 346.333 352.519 348.512Q350.422 350.691 348.38 352.921Q346.337 355.152 344.352 357.433Q342.366 359.714 340.438 362.045Q338.51 364.375 336.641 366.753Q334.773 369.131 332.964 371.555Q331.155 373.978 329.408 376.447C314.687 396.886 302.503 421.217 295.438 445.421C292.739 454.667 290.947 464.091 288.733 473.45L288.024 473.471C285.477 483.07 284.619 493.748 283.92 503.619C281.363 539.735 285.568 570.185 297.679 604.152C300.75 612.765 304.093 621.809 308.788 629.665C309.078 630.151 309.398 630.57 309.745 631.015C313.123 639.687 319.216 648.295 324.778 655.683C342.236 678.867 362.504 697.95 386.192 714.636C391.02 718.037 395.688 721.945 401.141 724.322C405.846 726.374 410.343 728.597 414.947 730.861C413.432 731.045 400.444 724.84 398.403 723.585L397.857 723.777C410.995 737.024 424.845 749.395 438.199 762.394L491.739 815.453C503.754 827.267 517.486 838.409 528.23 851.358C529.148 852.464 529.575 853.04 529.626 854.482C483.044 856.332 439.716 850.733 395.42 835.948C385.881 832.764 376.483 828.774 367.387 824.496C360.456 821.236 353.45 817.186 346.045 815.127C342.117 814.035 337.735 813.592 333.735 814.522C322.593 817.115 298.989 833.605 287.686 839.922C273.401 847.905 258.004 855.261 242.709 861.157Z"/>
	<path fill="#FEFEFE" d="M288.733 473.45C290.947 464.091 292.739 454.667 295.438 445.421C302.503 421.217 314.687 396.886 329.408 376.447Q331.155 373.978 332.964 371.555Q334.773 369.131 336.641 366.753Q338.51 364.375 340.438 362.045Q342.366 359.714 344.352 357.433Q346.337 355.152 348.379 352.921Q350.422 350.691 352.519 348.512Q354.617 346.333 356.768 344.208Q358.92 342.082 361.124 340.011Q363.328 337.94 365.584 335.925Q367.839 333.91 370.144 331.953Q372.449 329.995 374.803 328.096Q377.156 326.196 379.557 324.356Q381.957 322.517 384.403 320.738Q386.849 318.959 389.338 317.242Q391.828 315.525 394.36 313.87Q396.892 312.216 399.464 310.626Q402.037 309.036 404.649 307.511Q407.26 305.986 409.909 304.527Q412.558 303.067 415.243 301.675Q417.928 300.283 420.647 298.958Q423.366 297.634 426.117 296.378Q428.868 295.122 431.65 293.935Q434.432 292.749 437.243 291.632Q440.053 290.516 442.891 289.47Q445.729 288.424 448.592 287.45Q451.456 286.476 454.342 285.574Q457.229 284.672 460.137 283.843Q463.046 283.013 465.974 282.257Q468.902 281.501 471.849 280.819Q474.795 280.136 477.758 279.528Q480.72 278.919 483.697 278.385Q486.674 277.851 489.663 277.392C537.763 269.614 588.588 278.706 631.99 300.24C640.815 304.618 649.992 309.411 657.95 315.245C659.614 316.465 661.815 317.978 662.132 320.145C661.308 322.322 641.26 334.023 637.655 336.545C629.239 342.432 620.884 348.603 612.845 354.994C607.333 359.377 601.8 364.565 595.742 368.16C598.418 371.863 601.09 375.526 603.414 379.465C615.086 371.112 626.346 362.214 638.007 353.842C645.445 348.502 653.181 343.548 660.84 338.536C669.476 332.884 678.491 326.644 688.142 322.88C692.615 321.135 697.887 319.888 702.687 320.626C708.31 321.49 711.208 325.186 714.27 329.561C717.073 330.933 733.596 348.083 736.921 351.24C746.943 360.755 862.419 472.086 862.85 472.226L863.176 471.665C865.594 488.297 864.688 507.617 863.468 524.423C858.389 594.346 835.57 659.287 793.491 715.583C783.737 728.632 772.485 741.124 761.039 752.712C756.581 757.225 750.878 761.153 746.841 765.94C738.759 772.673 730.668 779.407 722.114 785.539C665.42 826.178 598.898 848.769 529.626 854.482C529.575 853.04 529.148 852.464 528.23 851.358C517.486 838.409 503.754 827.267 491.739 815.453L438.199 762.394C424.845 749.395 410.995 737.024 397.857 723.777L398.403 723.585C400.444 724.84 413.432 731.045 414.947 730.861C410.343 728.597 405.846 726.374 401.141 724.322C395.688 721.945 391.02 718.037 386.192 714.636C362.504 697.95 342.236 678.867 324.778 655.683C319.216 648.295 313.123 639.687 309.745 631.015C309.398 630.57 309.078 630.151 308.788 629.665C304.093 621.809 300.75 612.765 297.679 604.152C285.568 570.185 281.363 539.735 283.92 503.619C284.619 493.748 285.477 483.07 288.024 473.471L288.733 473.45Z"/>
	<path fill="#0E7171" d="M603.414 379.465C615.086 371.112 626.346 362.214 638.007 353.842C645.445 348.502 653.181 343.548 660.84 338.536C669.476 332.884 678.491 326.644 688.142 322.88C692.615 321.135 697.887 319.888 702.687 320.626C708.31 321.49 711.208 325.186 714.27 329.561C715.311 332.512 715.6 336.132 716.777 338.876L717.762 338.457C720.358 340.758 721.81 354.348 722.068 358.354C723.621 382.427 707.161 412.306 691.55 429.908C672.089 451.851 643.32 469.874 619.055 486.205Q585.664 508.442 552.685 531.285Q534.465 543.9 516.829 557.319Q499.194 570.739 482.179 584.937Q465.163 599.135 448.803 614.083Q432.442 629.031 416.769 644.698C410.781 650.686 393.121 666.507 391.596 673.569C391.574 673.671 391.549 673.771 391.525 673.873C389.918 675.205 387.628 676.387 385.689 677.182C381.216 679.013 376.018 679.194 371.534 677.293C368.323 675.932 366.1 673.489 364.921 670.218C358.694 652.949 380.298 612.514 387.845 596.575C377.262 582.203 370.65 564.351 366.658 547.025C357.158 505.8 365.4 465.308 387.719 429.76Q388.793 428.035 389.909 426.338Q391.025 424.64 392.182 422.97Q393.339 421.3 394.537 419.659Q395.735 418.018 396.973 416.407Q398.211 414.796 399.488 413.216Q400.765 411.636 402.081 410.087Q403.396 408.539 404.749 407.024Q406.102 405.508 407.492 404.026Q408.882 402.545 410.308 401.097Q411.734 399.65 413.195 398.238Q414.656 396.827 416.152 395.451Q417.647 394.076 419.176 392.738Q420.704 391.399 422.265 390.099Q423.826 388.799 425.419 387.537Q427.011 386.276 428.634 385.053Q430.258 383.831 431.91 382.65Q433.563 381.468 435.244 380.327Q436.925 379.186 438.634 378.087Q440.342 376.987 442.077 375.931Q443.812 374.874 445.573 373.86Q447.333 372.846 449.118 371.875Q450.903 370.905 452.712 369.978Q454.52 369.052 456.35 368.171Q458.181 367.289 460.032 366.453Q461.884 365.616 463.755 364.826Q465.627 364.035 467.517 363.29Q469.408 362.546 471.316 361.848Q473.224 361.151 475.149 360.5Q477.073 359.849 479.013 359.246Q480.953 358.643 482.908 358.087Q484.862 357.532 486.829 357.025Q488.797 356.518 490.776 356.059C521.526 349.096 568.665 351.092 595.742 368.16C598.418 371.863 601.09 375.526 603.414 379.465Z"/>
	<path fill="#FEFEFE" d="M603.414 379.465C615.086 371.112 626.346 362.214 638.007 353.842C645.445 348.502 653.181 343.548 660.84 338.536C669.476 332.884 678.491 326.644 688.142 322.88C692.615 321.135 697.887 319.888 702.687 320.626C708.31 321.49 711.208 325.186 714.27 329.561C715.311 332.512 715.6 336.132 716.777 338.876C719.105 366.434 708.203 389.876 690.728 410.619C675.457 428.746 658.522 440.738 639.294 454.275C620.733 467.343 601.715 479.711 582.919 492.434C560.593 507.547 537.891 522.363 516.214 538.389C471.38 571.536 429.148 609.603 393.685 652.669C391.679 655.105 388.438 659.917 385.037 660.154C384.079 660.221 383.778 659.965 382.932 659.587C381.601 657.801 381.865 656.278 382.152 654.197C383.908 641.493 391.372 626.545 396.642 614.746C430.465 539.014 500.764 465.363 563.378 411.615C576.412 400.427 590.061 390.222 603.414 379.465Z"/>
	<defs>
		<linearGradient id="gradient_1" gradientUnits="userSpaceOnUse" x1="442.38223" y1="399.94028" x2="762.63391" y2="749.80859">
			<stop offset="0" stop-color="#0D5668"/>
			<stop offset="1" stop-color="#1CC58C"/>
		</linearGradient>
	</defs>
	<path fill="url(#gradient_1)" d="M714.27 329.561C717.073 330.933 733.596 348.083 736.921 351.24C746.943 360.755 862.419 472.086 862.85 472.226L863.176 471.665C865.594 488.297 864.688 507.617 863.468 524.423C858.389 594.346 835.57 659.287 793.491 715.583C783.737 728.632 772.485 741.124 761.039 752.712C756.581 757.225 750.878 761.153 746.841 765.94C738.759 772.673 730.668 779.407 722.114 785.539C665.42 826.178 598.898 848.769 529.626 854.482C529.575 853.04 529.148 852.464 528.23 851.358C517.486 838.409 503.754 827.267 491.739 815.453L438.199 762.394C424.845 749.395 410.995 737.024 397.857 723.777L398.403 723.585C400.444 724.84 413.432 731.045 414.947 730.861C410.343 728.597 405.846 726.374 401.141 724.322C395.688 721.945 391.02 718.037 386.192 714.636C362.504 697.95 342.236 678.867 324.778 655.683C319.216 648.295 313.123 639.687 309.745 631.015C309.398 630.57 309.078 630.151 308.788 629.665C304.093 621.809 300.75 612.765 297.679 604.152C285.568 570.185 281.363 539.735 283.92 503.619C284.619 493.748 285.477 483.07 288.024 473.471L288.733 473.45C287.007 485.703 285.252 498.064 285.052 510.459Q285.022 512.91 285.043 515.361Q285.064 517.813 285.136 520.263Q285.208 522.713 285.331 525.161Q285.454 527.61 285.628 530.055Q285.801 532.5 286.026 534.941Q286.251 537.382 286.526 539.818Q286.802 542.253 287.128 544.683Q287.454 547.112 287.83 549.535Q288.207 551.957 288.634 554.371Q289.061 556.785 289.538 559.189Q290.015 561.594 290.542 563.987Q291.069 566.381 291.645 568.764Q292.222 571.146 292.848 573.516Q293.474 575.886 294.15 578.243Q294.825 580.599 295.549 582.941Q296.273 585.283 297.046 587.609Q297.819 589.936 298.64 592.246Q299.461 594.555 300.33 596.847Q301.199 599.14 302.115 601.413Q303.032 603.687 303.995 605.941Q304.959 608.195 305.969 610.428Q306.979 612.662 308.036 614.874Q309.092 617.086 310.194 619.275Q311.297 621.465 312.444 623.631Q313.592 625.797 314.784 627.939Q315.977 630.08 317.214 632.197Q318.45 634.313 319.731 636.404Q321.011 638.494 322.335 640.557Q323.659 642.62 325.025 644.655Q326.392 646.69 327.8 648.697Q329.209 650.703 330.658 652.68Q332.108 654.656 333.599 656.602C335.458 659.072 337.346 661.538 339.347 663.894C348.735 673.478 355.697 682.113 366.2 690.95C410.858 728.523 471.635 750.698 529.951 751.392Q532.794 751.421 535.637 751.379Q538.479 751.337 541.32 751.226Q544.161 751.114 546.998 750.932Q549.835 750.751 552.667 750.499Q555.499 750.248 558.324 749.926Q561.149 749.605 563.965 749.214Q566.781 748.823 569.586 748.363Q572.392 747.902 575.185 747.373Q577.979 746.844 580.758 746.246Q583.537 745.648 586.301 744.981Q589.065 744.315 591.812 743.58Q594.558 742.846 597.286 742.044Q600.013 741.242 602.72 740.373Q605.427 739.504 608.112 738.569Q610.797 737.634 613.458 736.632Q616.118 735.631 618.754 734.564Q621.389 733.498 623.997 732.366Q626.606 731.235 629.185 730.04Q631.765 728.844 634.314 727.586Q636.863 726.327 639.381 725.006Q641.898 723.685 644.382 722.303Q646.866 720.92 649.316 719.476Q651.765 718.033 654.178 716.529Q656.591 715.026 658.966 713.463Q661.341 711.901 663.677 710.28Q666.013 708.659 668.308 706.981Q670.603 705.304 672.856 703.57Q675.109 701.836 677.319 700.047Q679.528 698.258 681.693 696.415Q683.858 694.572 685.977 692.676Q688.096 690.781 690.167 688.833Q692.238 686.886 694.261 684.888C712.497 667.037 724.858 648.891 737.132 626.67C743.26 615.576 748.415 609.145 748.574 595.827C748.696 585.526 745.231 575.508 737.875 568.146C730.467 560.731 719.502 556.635 709.077 556.729C698.967 556.819 689.373 561.544 682.397 568.747C676.255 575.088 672.65 584.048 668.376 591.684C665.569 596.698 662.354 601.593 659.023 606.278C628.803 648.778 581.231 673.376 529.309 674.685C499.924 675.426 472.764 668.36 447.177 653.92C440.69 650.259 434.138 646.579 428.396 641.788C418.598 651.226 402.9 667.507 391.525 673.873C391.549 673.771 391.574 673.671 391.596 673.569C393.121 666.507 410.781 650.686 416.769 644.698Q432.442 629.031 448.803 614.083Q465.163 599.135 482.179 584.937Q499.194 570.739 516.829 557.319Q534.465 543.9 552.685 531.285Q585.664 508.442 619.055 486.205C643.32 469.874 672.089 451.851 691.55 429.908C707.161 412.306 723.621 382.427 722.068 358.354C721.81 354.348 720.358 340.758 717.762 338.457L716.777 338.876C715.6 336.132 715.311 332.512 714.27 329.561Z"/>
	<path fill="#0E7171" d="M309.745 631.015C309.398 630.57 309.078 630.151 308.788 629.665C304.093 621.809 300.75 612.765 297.679 604.152C285.568 570.185 281.363 539.735 283.92 503.619C284.619 493.748 285.477 483.07 288.024 473.471L288.733 473.45C287.007 485.703 285.252 498.064 285.052 510.459Q285.022 512.91 285.043 515.361Q285.064 517.813 285.136 520.263Q285.208 522.713 285.331 525.161Q285.454 527.61 285.628 530.055Q285.801 532.5 286.026 534.941Q286.251 537.382 286.526 539.818Q286.802 542.253 287.128 544.683Q287.454 547.112 287.83 549.535Q288.207 551.957 288.634 554.371Q289.061 556.785 289.538 559.189Q290.015 561.594 290.542 563.987Q291.069 566.381 291.645 568.764Q292.222 571.146 292.848 573.516Q293.474 575.886 294.15 578.243Q294.825 580.599 295.549 582.941Q296.273 585.283 297.046 587.609Q297.819 589.936 298.64 592.246Q299.461 594.555 300.33 596.847Q301.199 599.14 302.115 601.413Q303.032 603.687 303.995 605.941Q304.959 608.195 305.969 610.428Q306.979 612.662 308.036 614.874Q309.092 617.086 310.194 619.275Q311.297 621.465 312.444 623.631Q313.592 625.797 314.784 627.939Q315.977 630.08 317.214 632.197Q318.45 634.313 319.731 636.404Q321.011 638.494 322.335 640.557Q323.659 642.62 325.025 644.655Q326.392 646.69 327.8 648.697Q329.209 650.703 330.658 652.68Q332.108 654.656 333.599 656.602C335.458 659.072 337.346 661.538 339.347 663.894C339.133 663.891 338.916 663.918 338.705 663.883C336.284 663.485 332.27 656.593 330.795 654.521C314.466 631.577 301.153 607.797 293.817 580.388C291.486 571.679 288.953 562.703 287.089 553.904C286.449 550.885 288.064 547.325 285.96 544.824L285.323 545.11C284.601 548.268 285.431 552.014 285.847 555.19C288.327 574.104 293.896 593.295 301.059 610.966C303.387 616.709 308.232 624.579 309.539 630.08C309.612 630.391 309.676 630.703 309.745 631.015Z"/>
</svg>
